<svg xmlns="http://www.w3.org/2000/svg" version="1.1" xmlns:xlink="http://www.w3.org/1999/xlink" xmlns:svgjs="http://svgjs.com/svgjs" width="1440" height="560" preserveAspectRatio="none" viewBox="0 0 1440 560"><g mask="url(&quot;#SvgjsMask1001&quot;)" fill="none"><path d="M338.82 620.27C489.9 582.56 535.72 180.59 771.75 172.48 1007.78 164.37 988.22 242.48 1204.68 242.48 1421.15 242.48 1527.97 172.71 1637.61 172.48" stroke="rgba(51,121,194,0.58)" stroke-width="2"></path><path d="M554.73 601.06C657.5 599.06 747.8 463.95 942.31 463.89 1136.83 463.83 1136.1 533.89 1329.9 533.89 1523.69 533.89 1619.02 464.17 1717.48 463.89" stroke="rgba(51,121,194,0.58)" stroke-width="2"></path><path d="M220.89 654.54C386.93 594.19 407.27 113.93 656.05 97.77 904.82 81.61 873.63 167.77 1091.2 167.77 1308.78 167.77 1416.17 97.99 1526.36 97.77" stroke="rgba(51,121,194,0.58)" stroke-width="2"></path><path d="M572.04 609.06C738.82 556.2 785.35 79.32 1024.4 75.06 1263.45 70.8 1350.71 293.04 1476.76 299.06" stroke="rgba(51,121,194,0.58)" stroke-width="2"></path><path d="M483 670.31C586.22 663.81 556.12 476.43 845.14 470.32 1134.17 464.21 1381.85 276.04 1569.43 274.32" stroke="rgba(51,121,194,0.58)" stroke-width="2"></path></g><defs><mask id="SvgjsMask1001"><rect width="1440" height="560" fill="#ffffff"></rect></mask></defs></svg>