<?xml version="1.0" encoding="UTF-8" standalone="no"?>
<!-- Created with Inkscape (http://www.inkscape.org/) -->

<svg
   version="1.1"
   id="svg2"
   width="436.13861"
   height="381.81451"
   viewBox="0 0 436.13861 381.81451"
   sodipodi:docname="logo.svg"
   inkscape:version="1.2.1 (9c6d41e410, 2022-07-14)"
   xmlns:inkscape="http://www.inkscape.org/namespaces/inkscape"
   xmlns:sodipodi="http://sodipodi.sourceforge.net/DTD/sodipodi-0.dtd"
   xmlns="http://www.w3.org/2000/svg"
   xmlns:svg="http://www.w3.org/2000/svg">
  <defs
     id="defs6">
    <clipPath
       clipPathUnits="userSpaceOnUse"
       id="clipPath18">
      <path
         d="M 0,0 H 1562.5 V 1593.75 H 0 Z"
         clip-rule="evenodd"
         id="path16" />
    </clipPath>
    <clipPath
       clipPathUnits="userSpaceOnUse"
       id="clipPath32">
      <path
         d="M 0,0 H 1562.5 V 1562.5 H 0 Z"
         clip-rule="evenodd"
         id="path30" />
    </clipPath>
    <clipPath
       clipPathUnits="userSpaceOnUse"
       id="clipPath44">
      <path
         d="M 0,0 H 1562.5 V 1562.5 H 0 Z"
         clip-rule="evenodd"
         id="path42" />
    </clipPath>
    <clipPath
       clipPathUnits="userSpaceOnUse"
       id="clipPath56">
      <path
         d="M 96.859451,156.25 H 1465.6095 V 1359.375 H 96.859451 Z"
         clip-rule="evenodd"
         id="path54" />
    </clipPath>
  </defs>
  <sodipodi:namedview
     id="namedview4"
     pagecolor="#ffffff"
     bordercolor="#000000"
     borderopacity="0.25"
     inkscape:showpageshadow="2"
     inkscape:pageopacity="0.0"
     inkscape:pagecheckerboard="0"
     inkscape:deskcolor="#d1d1d1"
     showgrid="false"
     inkscape:zoom="1.658"
     inkscape:cx="82.931242"
     inkscape:cy="202.6538"
     inkscape:window-width="2560"
     inkscape:window-height="1009"
     inkscape:window-x="-8"
     inkscape:window-y="-8"
     inkscape:window-maximized="1"
     inkscape:current-layer="g10">
    <inkscape:page
       x="0"
       y="0"
       id="page8"
       width="436.13861"
       height="381.81451" />
  </sodipodi:namedview>
  <g
     id="g10"
     inkscape:groupmode="layer"
     inkscape:label="Page 1"
     transform="matrix(0.31999998,0,0,0.31999998,-39.163222,-47.894593)">
    <g
       id="g26" />
    <g
       id="g38" />
    <g
       id="g50">
      <g
         id="g52"
         clip-path="url(#clipPath56)"
         transform="translate(22.617613,-15.078409)">
        <g
           id="g58"
           transform="matrix(5.0247798,0,0,5.0294747,-287.03375,-307.9332)">
          <path
             d="m 123.845,292.71899 c -7.125,0.71201 -14.348,1.422 -21.415,0.262 -7.066002,-1.159 -14.077003,-4.427 -18.247001,-10.249 -3.749001,-5.233 -4.819001,-11.87799 -5.518998,-18.277 -2.274002,-20.79001 -1.758003,-41.77201 -1.238998,-62.679 0.115997,-4.67501 0.279999,-9.54201 2.461998,-13.678 4.385002,-8.311 14.987,-10.70199 24.303999,-11.92999 49.71301,-6.551 100.07701,-5.46001 150.20701,-4.357 3.599,0.079 7.418,0.22501 10.41101,2.226 4.15601,2.78 5.44901,8.219 6.203,13.16201 3.12299,20.46499 2.70301,41.285 2.276,61.983 -0.12899,6.276 -0.289,12.70898 -2.60299,18.544 -3.827,9.651 -13.137,16.28299 -23.03,19.431 -9.89301,3.14801 -20.453,3.31 -30.834,3.444 -15.623,0.202 -31.246,0.40399 -46.869,0.607 -3.43801,0.044 -7.07201,0.14401 -9.985,1.97 -2.58501,1.61999 -4.21001,4.358 -5.87301,6.91501 -8.557,13.16101 -20.63,24.013 -34.62499,31.125 2.28199,-16.374 4.25599,-23.383 4.375,-36.17099 z"
             style="fill:#5271ff;fill-opacity:1;fill-rule:nonzero;stroke:none"
             id="path60" />
          <path
             d="m 171.18401,203.437 c 0,22.466 0,44.93199 0,67.39698"
             style="fill:none;stroke:#e3ebf8;stroke-width:1;stroke-linecap:butt;stroke-linejoin:miter;stroke-miterlimit:10;stroke-dasharray:none;stroke-opacity:1"
             id="path62" />
          <path
             d="m 142.727,235.888 c 19.637,0 39.273,0 58.91001,0"
             style="fill:none;stroke:#e3ebf8;stroke-width:1;stroke-linecap:butt;stroke-linejoin:miter;stroke-miterlimit:10;stroke-dasharray:none;stroke-opacity:1"
             id="path64" />
          <path
             d="m 301.35501,215.724 c 7.125,0.712 14.34799,1.422 21.41501,0.26199 7.06601,-1.15899 14.077,-4.427 18.24701,-10.24899 3.74899,-5.23399 4.819,-11.87801 5.51901,-18.27701 2.27399,-20.79001 1.758,-41.772 1.23801,-62.679 -0.116,-4.675 -0.28,-9.542 -2.46201,-13.678 -4.38501,-8.311 -14.987,-10.703 -24.30398,-11.930001 -49.71302,-6.551003 -100.077,-5.459999 -150.207,-4.357002 -3.599,0.079 -7.418,0.224998 -10.411,2.225998 -4.15601,2.779998 -5.44901,8.219005 -6.203,13.162005 -3.123,20.465 -2.70301,41.28499 -2.276,61.98299 0.13,6.276 0.289,12.709 2.60299,18.54401 3.827,9.651 13.137,16.283 23.03,19.431 9.89301,3.14799 20.45301,3.30999 30.834,3.444 15.623,0.20199 31.246,0.404 46.86901,0.60699 3.438,0.044 7.072,0.144 9.986,1.97 2.58499,1.62 4.20999,4.35801 5.87299,6.915 8.55701,13.16099 20.63,24.013 34.625,31.125 -2.28201,-16.37401 -4.25601,-23.383 -4.375,-36.17101 l -10e-4,-2.32797 z"
             style="fill:#5e17eb;fill-opacity:1;fill-rule:nonzero;stroke:none"
             id="path66" />
          <path
             d="m 217.877,183.814 c 2.082,-7.76301 2.073,-15.91201 2.05,-23.95 -0.037,-12.914 -0.074,-25.827 -0.11099,-38.741 -0.001,-0.5 0.012,-1.045 0.32899,-1.432 0.252,-0.309 0.648,-0.454 1.02401,-0.583 5.712,-1.95 12.356,-3.018 17.52099,0.10501 4.97,3.00499 7.23,9.46999 6.138,15.174 -1.09199,5.70401 -5.082,10.56999 -9.972,13.70399 -4.89,3.13401 -10.62399,4.706 -16.356,5.64301 5.86099,3.033 10.586,7.82001 15.798,11.86999 5.211,4.05001 11.418,7.512 18.006,7.12101"
             style="fill:none;stroke:#e3ebf8;stroke-width:1;stroke-linecap:butt;stroke-linejoin:miter;stroke-miterlimit:10;stroke-dasharray:none;stroke-opacity:1"
             id="path68" />
          <path
             d="m 257.08899,111.171 c -0.033,18.28499 -0.067,36.56899 -0.10001,54.85399 -0.014,7.457 -0.019,14.993 1.667,22.258"
             style="fill:none;stroke:#e3ebf8;stroke-width:1;stroke-linecap:butt;stroke-linejoin:miter;stroke-miterlimit:10;stroke-dasharray:none;stroke-opacity:1"
             id="path70" />
          <path
             d="m 269.655,112.361 c 0.75601,11.29 1.21701,16.54101 1.19699,24.91799 -0.033,13.508 -0.066,27.01601 -0.099,40.524"
             style="fill:none;stroke:#e3ebf8;stroke-width:1;stroke-linecap:butt;stroke-linejoin:miter;stroke-miterlimit:10;stroke-dasharray:none;stroke-opacity:1"
             id="path72" />
          <path
             d="m 250.52901,151.554 c 11.114,-1.26199 22.29799,-1.90199 33.48399,-1.916"
             style="fill:none;stroke:#e3ebf8;stroke-width:1;stroke-linecap:butt;stroke-linejoin:miter;stroke-miterlimit:10;stroke-dasharray:none;stroke-opacity:1"
             id="path74" />
          <path
             d="m 84.499001,234.049 c -0.433999,-11.596 -0.868004,-23.331 1.466003,-34.77001 0.384003,-1.88499 -2.506996,-2.69099 -2.892998,-0.798 -2.389999,11.716 -2.017998,23.688 -1.572998,35.567 0.07199,1.92601 3.072991,1.93501 2.999993,0.001 z"
             style="fill:#ffffff;fill-opacity:1;fill-rule:nonzero;stroke:none"
             id="path76" />
          <path
             d="m 90.985001,209.33701 c -0.235001,-4.79 0.361999,-9.536 1.781997,-14.11701 0.572998,-1.84801 -2.321998,-2.63901 -2.892997,-0.798 -1.491997,4.81199 -2.136002,9.882 -1.889,14.914 0.095,1.922 3.095001,1.934 3,10e-4 z"
             style="fill:#ffffff;fill-opacity:1;fill-rule:nonzero;stroke:none"
             id="path78" />
          <path
             d="m 177.397,103.326 c 10.989,-0.889 22.01801,-1.15101 33.036,-0.784 1.931,0.064 1.929,-2.935997 0,-3 -11.01801,-0.366997 -22.04801,-0.105004 -33.036,0.784 -1.91101,0.154 -1.927,3.156 0,3 z"
             style="fill:#ffffff;fill-opacity:1;fill-rule:nonzero;stroke:none"
             id="path80" />
          <path
             d="m 168.136,110.519 c 5.87399,-0.437 11.767,-0.493 17.648,-0.169 1.929,0.106 1.923,-2.894 0,-3 -5.881,-0.325 -11.77401,-0.269 -17.648,0.169 -1.914,0.143 -1.93001,3.144 0,3 z"
             style="fill:#ffffff;fill-opacity:1;fill-rule:nonzero;stroke:none"
             id="path82" />
        </g>
      </g>
    </g>
  </g>
</svg>
