<?xml version="1.0" encoding="UTF-8" standalone="no"?>
<svg
   width="630.1778"
   height="165.55576"
   viewBox="0 0 630.1778 165.55576"
   fill="none"
   version="1.1"
   id="svg24"
   sodipodi:docname="logo_normaLabs.svg"
   inkscape:version="1.1 (c68e22c387, 2021-05-23)"
   xmlns:inkscape="http://www.inkscape.org/namespaces/inkscape"
   xmlns:sodipodi="http://sodipodi.sourceforge.net/DTD/sodipodi-0.dtd"
   xmlns="http://www.w3.org/2000/svg"
   xmlns:svg="http://www.w3.org/2000/svg">
  <defs
     id="defs28" />
  <sodipodi:namedview
     id="namedview26"
     pagecolor="#ffffff"
     bordercolor="#666666"
     borderopacity="1.0"
     inkscape:pageshadow="2"
     inkscape:pageopacity="0.0"
     inkscape:pagecheckerboard="0"
     showgrid="false"
     inkscape:zoom="1.2042683"
     inkscape:cx="127.46329"
     inkscape:cy="184.75949"
     inkscape:window-width="1920"
     inkscape:window-height="1017"
     inkscape:window-x="1912"
     inkscape:window-y="-8"
     inkscape:window-maximized="1"
     inkscape:current-layer="svg24" />
  <path
     d="M 69.284116,32.347238 V 113.3682 H 62.446367 L 11.508788,53.315208 V 112.45593 H 0 V 31.548847 H 6.9502372 L 57.659609,91.60363 V 32.347238 Z"
     fill="#393536"
     id="path2"
     style="stroke-width:2.5647" />
  <path
     d="m 118.85184,86.361125 c 0,-9.571721 -7.29247,-16.978065 -16.2956,-16.978065 -9.117,0 -16.409471,7.406344 -16.409471,16.978065 0,9.343462 7.292471,16.751605 16.409471,16.751605 9.00313,0 16.2956,-7.408143 16.2956,-16.751605 z m -44.213654,0 c 0,-15.611079 12.534977,-27.235587 27.918054,-27.235587 15.27074,0 27.80444,11.624508 27.80444,27.235587 0,15.497205 -12.5337,27.121715 -27.80444,27.121715 -15.383077,0 -27.918054,-11.62451 -27.918054,-27.121715 z"
     fill="#393536"
     id="path4"
     style="stroke-width:2.5647" />
  <path
     d="m 168.19207,59.35431 -0.91227,11.39471 c -1.48111,-0.568594 -2.84784,-0.910725 -5.01476,-0.910725 -9.79972,0 -14.81294,7.292214 -14.92707,14.700353 V 112.45696 H 135.94172 V 60.038572 h 9.68739 l 0.45447,10.255727 c 2.16691,-6.153488 8.43453,-11.282377 17.77799,-11.282377 1.59499,0 3.0761,0.114129 4.3305,0.342388 z"
     fill="#393536"
     id="path6"
     style="stroke-width:2.5647" />
  <path
     d="M 259.92476,83.398126 V 112.45696 H 248.64289 V 84.87924 c 0,-9.457591 -4.78675,-15.611335 -12.76349,-15.611335 -8.31861,0 -13.56162,6.838006 -13.56162,15.269204 V 112.45696 H 210.92307 V 84.87924 c 0,-9.457591 -5.01476,-15.611335 -12.7617,-15.611335 -8.20627,0 -12.87736,6.381746 -13.56163,13.217956 l -0.11387,29.971099 H 173.0909 V 60.038572 h 8.65946 l 0.456,9.343462 c 2.96198,-5.697483 9.57173,-10.370112 17.77646,-10.370112 8.77512,0 15.49721,4.102496 19.14498,10.598114 3.07764,-5.697227 9.57172,-10.598114 17.89212,-10.598114 13.67243,0 22.90484,9.68585 22.90484,24.386204 z"
     fill="#393536"
     id="path8"
     style="stroke-width:2.5647" />
  <path
     d="m 308.92337,86.246995 c -0.11541,-9.685593 -6.60923,-16.865474 -16.41152,-16.865474 -9.0021,0 -16.1807,7.179881 -16.1807,16.865474 0,9.68585 7.1786,16.865735 16.1807,16.865735 9.80229,0 16.41152,-7.179885 16.41152,-16.865735 z m 10.82304,-26.209192 v 52.418647 h -10.02798 l -0.45395,-8.31887 c -3.87527,5.35689 -10.25624,9.34526 -19.03009,9.34526 -14.35976,0 -25.29821,-11.62451 -25.29821,-27.235845 0,-15.611078 11.05386,-27.235586 25.41106,-27.235586 8.43274,0 14.70087,3.419773 18.68898,7.976733 l 0.45651,-6.950339 z"
     fill="#393536"
     id="path10"
     style="stroke-width:2.5647" />
  <path
     d="M 433.00104,99.508039 V 115.33891 H 380.44775 V 39.631759 h 18.09397 v 59.87628 z"
     fill="#868484"
     id="path12"
     style="stroke-width:2.5647" />
  <path
     d="m 556.08874,92.507944 c 0,-5.385103 -3.87783,-8.292448 -12.38494,-8.292448 h -13.46212 v 16.260714 h 13.89299 c 8.40196,0 11.95407,-3.122264 11.95407,-7.968266 z M 542.41375,54.49215 h -12.17207 v 15.723669 h 12.17207 c 7.96853,0 11.19749,-2.799884 11.19749,-7.860809 0,-4.848054 -3.22896,-7.86286 -11.19749,-7.86286 z m 31.33808,39.091686 c 0,13.462374 -8.72511,21.754824 -29.72488,21.754824 H 512.58371 V 39.631502 h 30.04291 c 20.1406,0 28.322,8.507114 28.322,19.384524 0,8.183448 -4.52157,13.999677 -11.19749,16.368178 9.15342,2.262836 14.0007,9.477596 14.0007,18.199632 z"
     fill="#868484"
     id="path14"
     style="stroke-width:2.5647" />
  <path
     d="m 571.80779,106.50737 8.83283,-14.214605 c 7.32222,5.922151 14.64444,8.399915 22.39754,8.399915 4.95756,0 9.04826,-1.831459 9.04826,-6.784923 0,-5.061181 -3.87783,-6.784916 -14.21614,-10.014644 -11.95407,-3.770111 -22.83097,-8.184987 -22.83097,-22.184664 0,-14.108677 11.30777,-23.047173 28.64515,-23.047173 10.98718,0 20.03032,3.231267 26.38564,8.077269 l -8.18396,13.57009 c -5.06272,-3.555445 -11.41548,-6.031407 -18.41711,-6.031407 -5.59875,0 -10.01516,1.614992 -10.01516,6.138868 0,4.41462 4.41641,5.492307 14.64701,8.831035 11.09233,3.661111 22.07694,8.075987 22.07694,23.582939 0,14.10868 -10.44602,23.47702 -27.67825,23.47702 -13.56983,0 -22.93612,-3.66111 -30.69178,-9.79972 z"
     fill="#868484"
     id="path16"
     style="stroke-width:2.5647" />
  <path
     d="m 481.59443,137.94829 c 5.40383,0.0149 8.6174,4.01145 8.59944,10.6907 -0.0231,7.15347 -7.4325,15.52362 -7.74796,15.8773 l -0.92842,1.03947 -0.92329,-1.0446 c -0.31546,-0.35521 -7.67872,-8.76666 -7.6582,-15.92192 0.018,-6.679 3.25461,-10.65582 8.65843,-10.64095 z"
     fill="#f25c19"
     id="path18"
     style="stroke-width:2.5647" />
  <path
     d="m 481.97914,67.100989 c 6.22709,0.01821 11.27699,5.097344 11.25903,11.325464 -0.0154,6.226068 -5.09606,11.279042 -11.32315,11.260832 -6.22709,-0.01667 -11.27956,-5.097343 -11.2616,-11.325463 0.018,-6.226325 5.09862,-11.277247 11.32572,-11.260833 z M 469.13768,47.075034 c -5.37561,8.251156 -11.79506,21.893827 -11.84635,40.028828 -0.018,6.133739 0.52319,12.313643 1.37467,18.265548 l -8.11984,11.52859 c -2.22616,3.16048 -2.73397,7.20321 -1.35416,10.81483 l 6.64001,17.38457 c 0.32572,0.85609 1.09256,1.45777 2.00047,1.5719 l 0.30263,0.0198 c 0.80275,0.002 1.55934,-0.38342 2.02612,-1.04794 l 7.02728,-9.97643 29.19399,0.0826 6.97599,10.02618 c 0.46421,0.66605 1.21566,1.05435 2.01585,1.05768 l 0.30007,-0.0182 c 0.9079,-0.1072 1.67731,-0.70401 2.0056,-1.55523 l 6.7426,-17.36149 c 1.39776,-3.60315 0.91559,-7.64947 -1.29261,-10.82124 l -8.05317,-11.57501 c 0.88483,-5.946773 1.45676,-12.123599 1.47471,-18.255542 0.0513,-18.135258 -6.29121,-31.814091 -11.62066,-40.096536 -5.78853,-8.99492 -11.54885,-13.656008 -11.7925,-13.849386 l -1.06178,-0.851224 -1.06692,0.844812 c -0.24365,0.193379 -6.02961,4.821382 -11.872,13.78296 z"
     fill="#f25c19"
     id="path20"
     style="stroke-width:2.5647" />
  <path
     d="m 445.05514,144.77065 c -11.73095,5.38818 -24.78784,7.73514 -38.1012,6.70054 -19.77898,-1.53882 -37.74727,-10.3519 -50.59642,-24.81425 C 343.51093,112.19459 337.3223,93.81312 338.93037,74.899732 340.541,55.984293 349.75598,38.801309 364.88002,26.515621 380.00406,14.230113 399.22649,8.3112451 419.00547,9.8517071 438.78444,11.390502 456.7553,20.203507 469.59933,34.665985 l 7.66076,-6.222991 C 462.67463,12.025214 442.27757,2.0204874 419.82104,0.2717742 397.36709,-1.475295 375.54148,5.2435549 358.37337,19.191963 341.2027,33.140244 330.74128,52.64736 328.91521,74.11955 c -1.82863,21.47219 5.19609,42.33937 19.78411,58.75884 14.58545,16.41922 34.98509,26.42412 57.43904,28.17119 15.06762,1.17181 29.85056,-1.47291 43.13571,-7.55202 z"
     fill="#f25c19"
     id="path22"
     style="stroke-width:2.5647" />
</svg>
